# xmcd
#
# Track frame offsets: 
#        150
#        9796
#        21346
#        30922
#        40755
#        49407
#        62481
#        70716
#        82681
#        94529
#        106544
#        121610
#        135791
#        145319
#
# Disc length: 2086 seconds
#
# Revision: 1
# Processed by: cddbd v1.5.2PL0 Copyright (c) Steve Scherf et al.
# Submitted via: ExactAudioCopy v0.95b4
#
DISCID=9308240e
DTITLE=Michael Bublé and Frank Sinatra - The Kings Of Swing
DYEAR=2001
DGENRE=Swing
TTITLE0=Tell Him He's Yours (Michael Bublé)
TTITLE1=You Do Something To Me (Frank Sinatra)
TTITLE2=Me and Mrs. You (Michael Bublé)
TTITLE3=I've Got The World On A String (Frank Sinatra)
TTITLE4=That's How It Goes (Michael Bublé)
TTITLE5=I Get  A I Kick Out Of You (Frank Sinatra)
TTITLE6=Guess I'm Falling For You (Michael Bublé)
TTITLE7=A Foggy Day (Frank Sinatra)
TTITLE8=Peroxide Swing (Michael Bublé)
TTITLE9=Lover (Frank Sinatra)
TTITLE10=Love At First Sight (Michael Bublé)
TTITLE11=Don't You Worry 'Bout Me (Frank Sinatra)
TTITLE12=Anyone To Love (Michael Bublé)
TTITLE13=My Funny Valentine (Frank Sinatra)
EXTD=
EXTT0=
EXTT1=
EXTT2=
EXTT3=
EXTT4=
EXTT5=
EXTT6=
EXTT7=
EXTT8=
EXTT9=
EXTT10=
EXTT11=
EXTT12=
EXTT13=
PLAYORDER=
